<svg xmlns="http://www.w3.org/2000/svg" viewBox="0 0 721.54 362.44"><defs><style>.cls-1{fill:#fff;}</style></defs><title>Recurso 2</title><g id="Capa_2" data-name="Capa 2"><g id="Capa_1-2" data-name="Capa 1"><rect class="cls-1" y="259.97" width="721.54" height="21.53"/><path class="cls-1" d="M189,144.26H111.18c-13.23,0-22-14-15.9-25.76a83.85,83.85,0,0,1,74.57-45.45h63.3c12.8,0,18.37,16.12,8.33,24.06a208.75,208.75,0,0,0-38.72,40.25A17,17,0,0,1,189,144.26Z"/><path class="cls-1" d="M102.2,182.24h53.25a15.68,15.68,0,0,1,15,20.25A216,216,0,0,0,163.13,237a18.82,18.82,0,0,1-18.67,16.43h-26A32.44,32.44,0,0,1,86,221V198.46A16.22,16.22,0,0,1,102.2,182.24Z"/><path class="cls-1" d="M604.81,249c0,1.5,0,3-.08,4.48H566.5a215.75,215.75,0,0,0-15.91-71.21,212.7,212.7,0,0,0-20.32-38A210.39,210.39,0,0,0,513,121.94,133.75,133.75,0,0,1,604.81,249Z"/><path class="cls-1" d="M604.73,253.45c.06-1.49.08-3,.08-4.48a133.75,133.75,0,0,0-91.85-127"/><path class="cls-1" d="M642.2,150.59V253.45h-19V150.59c0-2.13-.1-4.24-.28-6.33-2.41-28-20.66-51.73-46.34-63.43-10.93-5-81.24-7.78-94.22-7.78h82.29a77.54,77.54,0,0,1,77.28,71.21Q642.19,147.39,642.2,150.59Z"/><path class="cls-1" d="M339.69,203.28,291.4,260,273.06,281.5H237.42A126.31,126.31,0,0,1,232.89,260a129.38,129.38,0,0,1,12.7-73.29Z"/><path class="cls-1" d="M354,115.72A129.06,129.06,0,0,0,248.4,181.36l137.76,24.31Z"/><path class="cls-1" d="M488.62,260q-.4,3.39-1,6.79a129.65,129.65,0,0,1-3.5,14.74H385.23L403.58,260l68.52-80.36A128.14,128.14,0,0,1,488.62,260Z"/><path class="cls-1" d="M469,174.48a128.47,128.47,0,0,0-85.79-56.95,130,130,0,0,0-23.1-2l47,131.54Z"/><polygon class="cls-1" points="329.21 281.5 280.59 281.5 298.93 259.97 314.54 241.64 321.29 259.97 329.21 281.5"/><path class="cls-1" d="M360.77,78.94c-89.71,0-162.69,73-162.69,162.7a163.18,163.18,0,0,0,1,18.33A160.81,160.81,0,0,0,203,281.5h21.77A140.64,140.64,0,0,1,220.26,260a142.16,142.16,0,0,1-1.18-18.33c0-78.13,63.56-141.7,141.69-141.7s141.69,63.57,141.69,141.7A142.16,142.16,0,0,1,501.28,260a140.64,140.64,0,0,1-4.53,21.53h21.77A160.81,160.81,0,0,0,522.43,260a163.18,163.18,0,0,0,1-18.33C523.46,151.93,450.48,78.94,360.77,78.94Z"/><path class="cls-1" d="M445.19,73.05h-1.13l-18-32.79a45.07,45.07,0,0,0-41.54-27.6H348a45.05,45.05,0,0,0-41,26.42l-19.24,34h-1.94L307,26.42A45.05,45.05,0,0,1,348,0h36.55A45.07,45.07,0,0,1,426.1,27.6Z"/><path class="cls-1" d="M529.78,36.53h27.56a18.4,18.4,0,0,1,18.4,18.4v0a12.2,12.2,0,0,1-12.2,12.2H536a18.4,18.4,0,0,1-18.4-18.4v0a12.2,12.2,0,0,1,12.2-12.2Z"/><path class="cls-1" d="M86.11,311h-.17a3.83,3.83,0,0,0-1.15-2.62,3.56,3.56,0,0,0-2.62-1.09h-.76v-.59h4.7Zm0,32.6v4.3h-4.7v-.59h.76a3.6,3.6,0,0,0,2.62-1.09,3.83,3.83,0,0,0,1.15-2.62Zm8.65-36.9v41.2H85.94v-41.2Zm16.25,0v2.53H94.59v-2.53Zm-2.89,19.66v2.47H94.59v-2.47Zm2.18,19,1.41,2.53H94.59v-2.53Zm4.29-9.54-2.7,12.07H100.35l2.12-2.53a11.26,11.26,0,0,0,5.18-1.15,11.06,11.06,0,0,0,3.83-3.3A17.44,17.44,0,0,0,114,335.8Zm-6.47-15v5.65h-5.59v-.12a5,5,0,0,0,3.59-1.5,5,5,0,0,0,1.41-3.62v-.41Zm0,7.88v5.65h-.59v-.47a4.87,4.87,0,0,0-1.41-3.59,5.08,5.08,0,0,0-3.59-1.47v-.12ZM111,305.61v1.71l-7.18-.65a24.08,24.08,0,0,0,2.73-.17c1-.12,1.86-.26,2.68-.42A8.49,8.49,0,0,0,111,305.61Zm0,3.42v6.88h-.59v-.7a6,6,0,0,0-1.62-4.36,6.06,6.06,0,0,0-4.39-1.71V309Z"/><path class="cls-1" d="M121.72,344.28v3.59h-4.36v-.59h.94a3.32,3.32,0,0,0,2.3-.86,2.77,2.77,0,0,0,.94-2.14Zm-.24-32.55,8.12,8.83v27.31h-8.06V318.44a43.58,43.58,0,0,0-.59-6.71Zm0,0L156,342.1l.59,6.53-34.48-30.36Zm8.12,32.55a2.94,2.94,0,0,0,1,2.14,3.22,3.22,0,0,0,2.24.86h1v.59h-4.36v-3.59Zm18.89-28.13a3,3,0,0,0-1-2.15,3.18,3.18,0,0,0-2.27-.85h-1v-.59h4.36v3.59Zm8.06-3.59v29.19c0,1.37,0,2.58.15,3.61s.24,2.13.44,3.27h-.53l-8.12-9.36V312.56Zm-.17,3.59v-3.59h4.41v.59h-1a3.34,3.34,0,0,0-2.27.85,2.76,2.76,0,0,0-1,2.15Z"/><path class="cls-1" d="M168.09,316.27h-.18A3,3,0,0,0,167,314a3.17,3.17,0,0,0-2.24-.88H164v-.59h4.35Zm0,27.89.23,3.71H164v-.59h.76a3.12,3.12,0,0,0,2.24-.92,3,3,0,0,0,.94-2.2Zm8.29-31.6v35.31h-8.47V312.56Zm-.11,31.6h.11a3.24,3.24,0,0,0,1,2.2,3.09,3.09,0,0,0,2.27.92h.76l0,.59H176Zm14.65-31.6v2.35H176.27v-2.35Zm-2.71,16.65v2.35H176.27v-2.35Zm0-5.06v5.18h-5.12v-.12a4.49,4.49,0,0,0,3.33-1.38,4.68,4.68,0,0,0,1.2-3.27v-.41Zm0,7.3v5.18h-.59v-.48a4.38,4.38,0,0,0-4.53-4.59v-.11Zm2.71-19.78v1.42l-6.24-.53a20.14,20.14,0,0,0,2.38-.15c.85-.1,1.62-.22,2.33-.35A10.82,10.82,0,0,0,190.92,311.67Zm0,3.06v6.36h-.65v-.59a5.73,5.73,0,0,0-1.38-4,5.39,5.39,0,0,0-4-1.56v-.18Z"/><path class="cls-1" d="M216.11,311.79a26.9,26.9,0,0,1,8.53,1.27,18.92,18.92,0,0,1,6.59,3.68,16.38,16.38,0,0,1,4.27,5.82,19,19,0,0,1,1.5,7.71,18.57,18.57,0,0,1-1.5,7.62,16.48,16.48,0,0,1-4.27,5.8,19.08,19.08,0,0,1-6.59,3.68,29.33,29.33,0,0,1-17,0,19,19,0,0,1-6.59-3.68,16.16,16.16,0,0,1-4.24-5.8,18.9,18.9,0,0,1-1.47-7.62,19.34,19.34,0,0,1,1.47-7.71,16.07,16.07,0,0,1,4.24-5.82,18.83,18.83,0,0,1,6.59-3.68A26.72,26.72,0,0,1,216.11,311.79Zm0,34.55a10.23,10.23,0,0,0,6.26-2,12.36,12.36,0,0,0,4.12-5.56,22.83,22.83,0,0,0,1.44-8.53,23.29,23.29,0,0,0-1.44-8.62,12.4,12.4,0,0,0-4.12-5.59,10.22,10.22,0,0,0-6.26-2,10,10,0,0,0-6.18,2,12.69,12.69,0,0,0-4.12,5.59,22.86,22.86,0,0,0-1.47,8.62,22.41,22.41,0,0,0,1.47,8.53,12.65,12.65,0,0,0,4.12,5.56A10,10,0,0,0,216.11,346.34Z"/><path class="cls-1" d="M262.06,311.79a25.69,25.69,0,0,1,8.33,1.27,18,18,0,0,1,6.41,3.68,16.12,16.12,0,0,1,4.12,5.82,19.7,19.7,0,0,1,1.45,7.71,19.24,19.24,0,0,1-1.45,7.62,16.22,16.22,0,0,1-4.12,5.8,18.16,18.16,0,0,1-6.41,3.68,28.13,28.13,0,0,1-16.65,0,18.3,18.3,0,0,1-6.42-3.68,16.34,16.34,0,0,1-4.12-5.8,19.24,19.24,0,0,1-1.44-7.62,19.7,19.7,0,0,1,1.44-7.71,16.24,16.24,0,0,1,4.12-5.82,18.14,18.14,0,0,1,6.42-3.68A25.63,25.63,0,0,1,262.06,311.79Zm0,34.55a9.5,9.5,0,0,0,6-2A12.43,12.43,0,0,0,272,338.8a23.72,23.72,0,0,0,1.38-8.53,24.2,24.2,0,0,0-1.38-8.62,12.47,12.47,0,0,0-3.94-5.59,9.49,9.49,0,0,0-6-2,9.36,9.36,0,0,0-5.94,2,12.71,12.71,0,0,0-3.94,5.59,23.73,23.73,0,0,0-1.41,8.62,23.27,23.27,0,0,0,1.41,8.53,12.66,12.66,0,0,0,3.94,5.56A9.37,9.37,0,0,0,262.06,346.34Zm-.11,2.23-1.77-2.12q3.24.24,5.77.56c1.68.22,3.23.48,4.65.8s2.82.68,4.23,1.12,2.93.93,4.53,1.5,3.46,1.26,5.54,2.08a40.46,40.46,0,0,0,6.73,1.92,26.35,26.35,0,0,0,6.21.47,19.59,19.59,0,0,0,5.48-1,16.39,16.39,0,0,0,4.59-2.47l.29.17a10,10,0,0,1-1.5,4.89,11.5,11.5,0,0,1-3.8,3.73,15.28,15.28,0,0,1-5.73,2,21.25,21.25,0,0,1-7.36-.23,31.41,31.41,0,0,1-8.56-3.12,51.37,51.37,0,0,1-5.33-3.18l-4.79-3.26a30.61,30.61,0,0,0-4.54-2.59A14.38,14.38,0,0,0,262,348.57Z"/><path class="cls-1" d="M289.84,312.56v3.06h-.12a2.57,2.57,0,0,0-.82-1.83,2.68,2.68,0,0,0-1.89-.7h-.82v-.53Zm8.36,0v22.18q0,5.42,2.5,8.48a8.49,8.49,0,0,0,7,3.06,9.12,9.12,0,0,0,7.21-2.89q2.56-2.88,2.62-8V312.56h3.88V335q0,6.3-3.85,9.94t-10.92,3.65q-8.53,0-12.71-3.62a12.42,12.42,0,0,1-4.18-9.91V312.56Zm3.47,0v.53h-.88a2.6,2.6,0,0,0-1.83.7,2.37,2.37,0,0,0-.76,1.83h-.12v-3.06Zm15.95,0v3.06h-.12a2.61,2.61,0,0,0-2.65-2.53H314v-.53Zm7.23,0v.53h-.76a2.76,2.76,0,0,0-1.91.7,2.34,2.34,0,0,0-.8,1.83h-.12v-3.06Z"/><path class="cls-1" d="M332.15,316.27H332a3.18,3.18,0,0,0-1-2.24,3,3,0,0,0-2.21-.88h-.76v-.59h4.35Zm0,27.89.29,3.71h-4.35v-.59h.76a3,3,0,0,0,2.21-.92,3.19,3.19,0,0,0,1-2.2Zm8.36-31.6v35.31H332V312.56Zm14.41,0v2.35H340.39v-2.35Zm-2.64,16.65v2.35H340.39v-2.35Zm2,16.3,1.35,2.36H340.39v-2.36ZM358,337l-2.23,10.83H345.63l1.82-2.36a9.51,9.51,0,0,0,4.5-1,9.88,9.88,0,0,0,3.39-2.94,14.37,14.37,0,0,0,2.17-4.5Zm-5.76-12.89v5.18h-5.06v-.12a4.38,4.38,0,0,0,3.26-1.38,4.69,4.69,0,0,0,1.21-3.27v-.41Zm0,7.3v5.18h-.59v-.48a4.57,4.57,0,0,0-1.21-3.23,4.44,4.44,0,0,0-3.26-1.36v-.11Zm2.64-19.78v1.42l-6.17-.53a20.73,20.73,0,0,0,3.58-.33A18.87,18.87,0,0,0,354.92,311.67Zm0,3.12V321h-.58v-.53a5.71,5.71,0,0,0-1.39-4.06,5.36,5.36,0,0,0-4-1.53v-.12Z"/><path class="cls-1" d="M380.05,316.21h-.12a3.11,3.11,0,0,0-3.17-3.06H376v-.59h4.3Zm0,28,.24,3.71h-4.24v-.59h.71a3,3,0,0,0,2.2-.92,3.19,3.19,0,0,0,1-2.2Zm8.36-31.6v35.31h-8.48V312.56Zm5,0a19.41,19.41,0,0,1,7.71,1.29,10,10,0,0,1,4.41,3.5,9.54,9.54,0,0,1,1.59,5,11.1,11.1,0,0,1-1.38,6.06,10.17,10.17,0,0,1-4,3.94,10.43,10.43,0,0,1-5.53,1.21,11.83,11.83,0,0,1-5.95-2.09v-.53a10.07,10.07,0,0,0,2.18-.21,7.18,7.18,0,0,0,2-.79,7,7,0,0,0,2-1.77,8.4,8.4,0,0,0,1.47-3.18,11,11,0,0,0,.27-1.56,7.68,7.68,0,0,0,0-1.5,7.26,7.26,0,0,0-1.92-5.14,6.8,6.8,0,0,0-5.14-1.92h-2.77c-.16-.74-.33-1.51-.53-2.29Zm-5.12,31.6h.12a3.25,3.25,0,0,0,.94,2.2,3,3,0,0,0,2.24.92h.7v.59H388Z"/><path class="cls-1" d="M414.54,316.27h-.12a3.22,3.22,0,0,0-1-2.24,3.06,3.06,0,0,0-2.21-.88h-.76v-.59h4.35Zm0,27.89.29,3.71h-4.35v-.59h.76a3,3,0,0,0,2.21-.92,3.24,3.24,0,0,0,1-2.2Zm8.35-31.6v35.31h-8.47V312.56Zm14.42,0v2.35H422.77v-2.35Zm-2.65,16.65v2.35H422.77v-2.35Zm2,16.3,1.36,2.36H422.77v-2.36Zm3.77-8.47-2.24,10.83H428l1.83-2.36a9.57,9.57,0,0,0,4.5-1,9.85,9.85,0,0,0,3.38-2.94,14.39,14.39,0,0,0,2.18-4.5Zm-5.77-12.89v5.18H429.6v-.12a4.41,4.41,0,0,0,3.27-1.38,4.68,4.68,0,0,0,1.2-3.27v-.41Zm0,7.3v5.18h-.59v-.48a4.56,4.56,0,0,0-1.2-3.23,4.48,4.48,0,0,0-3.27-1.36v-.11Zm2.65-19.78v1.42l-6.18-.53a20.84,20.84,0,0,0,3.59-.33A18.87,18.87,0,0,0,437.31,311.67Zm0,3.12V321h-.59v-.53a5.71,5.71,0,0,0-1.38-4.06,5.37,5.37,0,0,0-4-1.53v-.12Z"/><path class="cls-1" d="M447.84,316.21h-.11a3.08,3.08,0,0,0-1-2.21,3,3,0,0,0-2.14-.85h-.77v-.59h4.24Zm0,28,.24,3.71h-4.24v-.59h.71a3,3,0,0,0,2.2-.92,3.2,3.2,0,0,0,1-2.2Zm8.36-31.6v35.31h-8.53V312.56Zm5.77,0a22.25,22.25,0,0,1,4.7.5,13.39,13.39,0,0,1,4.12,1.59,8.15,8.15,0,0,1,2.92,2.94,9,9,0,0,1,1.08,4.62,10.49,10.49,0,0,1-.85,4.09,9,9,0,0,1-2.65,3.5,9.61,9.61,0,0,1-4.68,1.94,8.12,8.12,0,0,1,3.27,2.06,17,17,0,0,1,2.44,2.89c.16.31.43.81.83,1.5s.89,1.47,1.5,2.35,1.24,1.79,1.91,2.74a20.43,20.43,0,0,0,2.06,2.44,5.31,5.31,0,0,0,1.82,1.2,6.11,6.11,0,0,0,2.18.36v.59h-4.94a26.65,26.65,0,0,1-5.39-.47,9.36,9.36,0,0,1-3.82-1.74,12.93,12.93,0,0,1-3-3.44,17.83,17.83,0,0,1-1.12-1.86c-.39-.72-.79-1.46-1.18-2.2s-.73-1.47-1-2.18a14.29,14.29,0,0,1-.62-1.77,7.22,7.22,0,0,0-1.73-2.73,2.86,2.86,0,0,0-1.8-.86v-.53h1.47a7,7,0,0,0,2.45-.44,5,5,0,0,0,2.2-1.7,8.58,8.58,0,0,0,1.47-3.74,5.84,5.84,0,0,0,.21-1,7,7,0,0,0,0-1.47,8.83,8.83,0,0,0-.79-3.5,5.28,5.28,0,0,0-1.68-2,6.53,6.53,0,0,0-2-.95,7.71,7.71,0,0,0-1.8-.26c-.74,0-1.42,0-2,0a9.31,9.31,0,0,1-1.38,0s-.1-.21-.18-.62-.19-1-.35-1.79Zm-5.89,31.6h.12a2.76,2.76,0,0,0,1,2.29,3.46,3.46,0,0,0,2.21.83H460v.59h-4.23Z"/><path class="cls-1" d="M486.27,316.27h-.18a2.92,2.92,0,0,0-.94-2.24,3.15,3.15,0,0,0-2.24-.88h-.76v-.59h4.35Zm0,27.89.23,3.71h-4.35v-.59h.76a3.11,3.11,0,0,0,2.24-.92,2.93,2.93,0,0,0,.94-2.2Zm8.3-31.6v35.31h-8.48V312.56Zm-.12,31.6h.12a3.19,3.19,0,0,0,1,2.2,3.07,3.07,0,0,0,2.26.92h.77l-.06.59h-4.3Zm14.65-31.6v2.35H494.45v-2.35Zm-2.7,16.65v2.35H494.45v-2.35Zm0-5.06v5.18h-5.12v-.12a4.45,4.45,0,0,0,3.32-1.38,4.69,4.69,0,0,0,1.21-3.27v-.41Zm0,7.3v5.18h-.59v-.48a4.57,4.57,0,0,0-1.21-3.23,4.51,4.51,0,0,0-3.32-1.36v-.11Zm2.7-19.78v1.42l-6.24-.53a20.43,20.43,0,0,0,2.39-.15c.84-.1,1.62-.22,2.32-.35A10.12,10.12,0,0,0,509.1,311.67Zm0,3.06v6.36h-.65v-.59a5.73,5.73,0,0,0-1.38-4,5.38,5.38,0,0,0-4-1.56v-.18Z"/><path class="cls-1" d="M517.69,316.27h-.12a3.13,3.13,0,0,0-1-2.24,3,3,0,0,0-2.2-.88h-.77v-.59H518Zm0,27.89.3,3.71h-4.36v-.59h.77a3,3,0,0,0,2.2-.92,3.15,3.15,0,0,0,1-2.2Zm8.36-31.6v35.31h-8.48V312.56Zm14.42,0v2.35H525.93v-2.35Zm-2.65,16.65v2.35H525.93v-2.35Zm2,16.3,1.35,2.36H525.93v-2.36Zm3.77-8.47-2.24,10.83H531.17l1.82-2.36a9.51,9.51,0,0,0,4.5-1,9.79,9.79,0,0,0,3.39-2.94,14.39,14.39,0,0,0,2.18-4.5Zm-5.77-12.89v5.18h-5.06v-.12a4.38,4.38,0,0,0,3.26-1.38,4.64,4.64,0,0,0,1.21-3.27v-.41Zm0,7.3v5.18h-.59v-.48a4.53,4.53,0,0,0-1.21-3.23,4.44,4.44,0,0,0-3.26-1.36v-.11Zm2.65-19.78v1.42l-6.18-.53a20.84,20.84,0,0,0,3.59-.33A19.24,19.24,0,0,0,540.47,311.67Zm0,3.12V321h-.59v-.53a5.67,5.67,0,0,0-1.39-4.06,5.36,5.36,0,0,0-4-1.53v-.12Z"/><path class="cls-1" d="M582.84,333.1l.64,8.88a11.53,11.53,0,0,1-3.12,3.38,15.76,15.76,0,0,1-4.88,2.39,22.93,22.93,0,0,1-6.71.88,27.84,27.84,0,0,1-11.36-2.23,16.54,16.54,0,0,1-7.32-6.27,20.59,20.59,0,0,1,0-19.83,16.38,16.38,0,0,1,7.3-6.3,27,27,0,0,1,11.41-2.21,34.36,34.36,0,0,1,7.45.77A24.37,24.37,0,0,1,582,314.5l.06,9.36h-.47q-1.47-5.42-4.65-7.59a12.94,12.94,0,0,0-7.53-2.18,11.47,11.47,0,0,0-11.45,7.59,25.48,25.48,0,0,0,0,16.89,12.54,12.54,0,0,0,4.21,5.59,11.72,11.72,0,0,0,6.65,2.12,16.09,16.09,0,0,0,6.92-1.3A9.68,9.68,0,0,0,580,340.8a22.51,22.51,0,0,0,2.32-7.7Z"/><path class="cls-1" d="M586.31,311.62c.35.11.87.24,1.56.38s1.45.25,2.29.35a20,20,0,0,0,2.33.15l-6.18.59Zm34.13.88v2.35H586.31V312.5Zm-28.13,2.18v.17a5.36,5.36,0,0,0-4,1.53,5.63,5.63,0,0,0-1.39,4v.53h-.64v-6.23Zm6.89,29.48v3.71h-4v-.59h.59a3.09,3.09,0,0,0,2.27-.92,3.24,3.24,0,0,0,1-2.2Zm8.41-31.43v35.14h-8.53V312.73Zm-.18,31.43h.18a2.89,2.89,0,0,0,1,2.2,3.21,3.21,0,0,0,2.27.92h.64v.59h-4.06Zm13-32.54v1.47l-6.24-.59a20.89,20.89,0,0,0,2.41-.15c.87-.1,1.65-.21,2.36-.35A9.69,9.69,0,0,0,620.44,311.62Zm0,3.06v6.23h-.65v-.53a5.29,5.29,0,0,0-1.38-4,5.51,5.51,0,0,0-4-1.53v-.17Z"/><path class="cls-1" d="M643.27,311.79a27,27,0,0,1,8.54,1.27,18.92,18.92,0,0,1,6.59,3.68,16.35,16.35,0,0,1,4.26,5.82,19,19,0,0,1,1.5,7.71,18.57,18.57,0,0,1-1.5,7.62,16.46,16.46,0,0,1-4.26,5.8,19.08,19.08,0,0,1-6.59,3.68,27.26,27.26,0,0,1-8.54,1.26,26.94,26.94,0,0,1-8.47-1.26,19,19,0,0,1-6.59-3.68,16,16,0,0,1-4.24-5.8,18.9,18.9,0,0,1-1.47-7.62,19.34,19.34,0,0,1,1.47-7.71,16,16,0,0,1,4.24-5.82,18.83,18.83,0,0,1,6.59-3.68A26.65,26.65,0,0,1,643.27,311.79Zm0,34.55a10.26,10.26,0,0,0,6.27-2,12.43,12.43,0,0,0,4.12-5.56,22.83,22.83,0,0,0,1.44-8.53,23.29,23.29,0,0,0-1.44-8.62,12.47,12.47,0,0,0-4.12-5.59,10.25,10.25,0,0,0-6.27-2,10,10,0,0,0-6.18,2,12.77,12.77,0,0,0-4.12,5.59,22.86,22.86,0,0,0-1.47,8.62A22.41,22.41,0,0,0,633,338.8a12.73,12.73,0,0,0,4.12,5.56A10.06,10.06,0,0,0,643.27,346.34Z"/></g></g></svg>